<svg width="143" height="143" viewBox="0 0 143 143" fill="none" xmlns="http://www.w3.org/2000/svg">
<path d="M126.253 116.987C133.568 108.186 138.656 97.7516 141.086 86.568C143.516 75.3844 143.216 63.78 140.213 52.7365C137.21 41.693 131.591 31.5354 123.831 23.1228C116.072 14.7102 106.401 8.29018 95.6356 4.40584C84.8703 0.521501 73.3279 -0.712894 61.9847 0.807081C50.6415 2.32706 39.8312 6.55668 30.4684 13.1382C21.1056 19.7196 13.4656 28.4593 8.19484 38.6179C2.92405 48.7766 0.177503 60.0552 0.187527 71.4998C0.191374 88.1369 6.05423 104.241 16.7473 116.987L16.6454 117.074C17.002 117.501 17.4095 117.868 17.7762 118.291C18.2347 118.816 18.7288 119.31 19.2025 119.819C20.6287 121.368 22.0957 122.855 23.6341 124.251C24.1027 124.679 24.5866 125.076 25.0603 125.483C26.6903 126.889 28.3662 128.224 30.1031 129.467C30.3272 129.619 30.531 129.818 30.7551 129.976V129.915C42.6852 138.31 56.9171 142.816 71.5051 142.816C86.0931 142.816 100.325 138.31 112.255 129.915V129.976C112.479 129.818 112.678 129.619 112.907 129.467C114.639 128.219 116.32 126.889 117.95 125.483C118.424 125.076 118.908 124.673 119.376 124.251C120.914 122.85 122.381 121.368 123.808 119.819C124.281 119.31 124.77 118.816 125.234 118.291C125.596 117.868 126.008 117.501 126.365 117.068L126.253 116.987ZM71.5 30.7498C76.0335 30.7498 80.4653 32.0941 84.2347 34.6128C88.0042 37.1315 90.9422 40.7114 92.6771 44.8998C94.412 49.0883 94.8659 53.6971 93.9815 58.1435C93.097 62.5899 90.9139 66.6742 87.7082 69.8799C84.5026 73.0855 80.4183 75.2686 75.9719 76.1531C71.5255 77.0375 66.9166 76.5836 62.7282 74.8487C58.5398 73.1138 54.9599 70.1758 52.4412 66.4064C49.9225 62.6369 48.5782 58.2052 48.5782 53.6716C48.5782 47.5924 50.9931 41.7621 55.2918 37.4634C59.5905 33.1648 65.4208 30.7498 71.5 30.7498ZM30.7857 116.987C30.874 110.299 33.5921 103.914 38.3517 99.2145C43.1114 94.5149 49.5299 91.8782 56.2188 91.8748H86.7813C93.4701 91.8782 99.8887 94.5149 104.648 99.2145C109.408 103.914 112.126 110.299 112.214 116.987C101.043 127.054 86.5381 132.625 71.5 132.625C56.462 132.625 41.9571 127.054 30.7857 116.987Z" fill="#DDDDDD"/>
</svg>
