<svg width="27" height="33" viewBox="0 0 27 33" fill="none" xmlns="http://www.w3.org/2000/svg">
<path fill-rule="evenodd" clip-rule="evenodd" d="M7.75 2.75C7.20299 2.75 6.67839 2.9673 6.29159 3.35409C5.9048 3.74089 5.6875 4.26549 5.6875 4.8125H3.625C3.07799 4.8125 2.55339 5.0298 2.16659 5.41659C1.7798 5.80339 1.5625 6.32799 1.5625 6.875V26.125C1.5625 26.672 1.7798 27.1966 2.16659 27.5834C2.55339 27.9702 3.07799 28.1875 3.625 28.1875H11.875V26.8125H3.625C3.44266 26.8125 3.2678 26.7401 3.13886 26.6111C3.00993 26.4822 2.9375 26.3073 2.9375 26.125V6.875C2.9375 6.69266 3.00993 6.5178 3.13886 6.38886C3.2678 6.25993 3.44266 6.1875 3.625 6.1875H5.6875C5.6875 6.73451 5.9048 7.25911 6.29159 7.64591C6.67839 8.0327 7.20299 8.25 7.75 8.25H13.25C13.797 8.25 14.3216 8.0327 14.7084 7.64591C15.0952 7.25911 15.3125 6.73451 15.3125 6.1875H17.375C17.5573 6.1875 17.7322 6.25993 17.8611 6.38886C17.9901 6.5178 18.0625 6.69266 18.0625 6.875V17.1875H19.4375V6.875C19.4375 6.32799 19.2202 5.80339 18.8334 5.41659C18.4466 5.0298 17.922 4.8125 17.375 4.8125H15.3125C15.3125 4.26549 15.0952 3.74089 14.7084 3.35409C14.3216 2.9673 13.797 2.75 13.25 2.75H7.75ZM7.0625 4.8125C7.0625 4.63016 7.13493 4.4553 7.26386 4.32636C7.39279 4.19743 7.56766 4.125 7.75 4.125H13.25C13.4323 4.125 13.6072 4.19743 13.7361 4.32636C13.8651 4.4553 13.9375 4.63016 13.9375 4.8125V6.1875C13.9375 6.36984 13.8651 6.5447 13.7361 6.67364C13.6072 6.80257 13.4323 6.875 13.25 6.875H7.75C7.56766 6.875 7.39279 6.80257 7.26386 6.67364C7.13493 6.5447 7.0625 6.36984 7.0625 6.1875V4.8125ZM9.8125 13.0625V11H11.1875V13.0625H13.25V14.4375H11.1875V16.5H9.8125V14.4375H7.75V13.0625H9.8125ZM12.5625 19.25C12.5625 19.0677 12.6349 18.8928 12.7639 18.7639C12.8928 18.6349 13.0677 18.5625 13.25 18.5625H21.5C21.6823 18.5625 21.8572 18.6349 21.9861 18.7639C22.1151 18.8928 22.1875 19.0677 22.1875 19.25V23.9174C22.1875 24.7097 21.9919 25.4896 21.618 26.1881C21.2442 26.8866 20.7037 27.482 20.0446 27.9214L17.7566 29.4477C17.6436 29.5231 17.5108 29.5633 17.375 29.5633C17.2392 29.5633 17.1064 29.5231 16.9934 29.4477L14.7054 27.9214C14.0464 27.482 13.506 26.8868 13.1321 26.1884C12.7583 25.4901 12.5626 24.7102 12.5625 23.9181V19.25ZM13.9375 19.9375V23.9174C13.9376 24.4833 14.0773 25.0405 14.3444 25.5394C14.6115 26.0383 14.9977 26.4636 15.4686 26.7774L17.375 28.05L19.2814 26.7781C19.7523 26.4643 20.1385 26.039 20.4056 25.5401C20.6727 25.0412 20.8124 24.484 20.8125 23.9181V19.9375H13.9375ZM17.1736 25.2361L19.9236 22.4861L18.9514 21.5139L16.6875 23.7779L15.7986 22.8889L14.8264 23.8611L16.2014 25.2361C16.3304 25.3649 16.5052 25.4374 16.6875 25.4374C16.8698 25.4374 17.0446 25.3649 17.1736 25.2361Z" fill="white"/>
</svg>
