<svg width="44" height="44" viewBox="0 0 44 44" fill="none" xmlns="http://www.w3.org/2000/svg">
<path d="M22.0003 3.6665C12.0618 3.6665 3.66699 12.0613 3.66699 21.9998C3.66699 31.9383 12.0618 40.3332 22.0003 40.3332C31.9388 40.3332 40.3337 31.9383 40.3337 21.9998C40.3337 12.0613 31.9388 3.6665 22.0003 3.6665ZM22.0003 12.8332C25.1665 12.8332 27.5003 15.1652 27.5003 18.3332C27.5003 21.5012 25.1665 23.8332 22.0003 23.8332C18.836 23.8332 16.5003 21.5012 16.5003 18.3332C16.5003 15.1652 18.836 12.8332 22.0003 12.8332ZM12.6393 30.7485C14.2838 28.3285 17.0265 26.7152 20.167 26.7152H23.8337C26.976 26.7152 29.7168 28.3285 31.3613 30.7485C29.0183 33.2565 25.6945 34.8332 22.0003 34.8332C18.3062 34.8332 14.9823 33.2565 12.6393 30.7485Z" fill="white"/>
</svg>
