<svg width="25" height="26" viewBox="0 0 25 26" fill="none" xmlns="http://www.w3.org/2000/svg">
<path d="M1.36452 2.42969L21.1021 21.1742C21.4766 21.5299 21.687 22.0123 21.687 22.5153C21.687 23.0183 21.4766 23.5007 21.1021 23.8564V23.8564C20.7275 24.212 20.2196 24.4117 19.6899 24.4117C19.1603 24.4117 18.6524 24.212 18.2778 23.8564L13.4563 19.1987C13.1408 18.8944 12.9638 18.4845 12.9634 18.0575V17.7761C12.9635 17.5605 12.9184 17.347 12.8309 17.1481C12.7433 16.9491 12.615 16.7686 12.4534 16.6172L11.8309 16.0713C11.6196 15.8861 11.3626 15.7544 11.0836 15.6882C10.8047 15.6221 10.5126 15.6236 10.2345 15.6927V15.6927C9.7958 15.8015 9.33482 15.7994 8.89727 15.6866C8.45972 15.5739 8.06082 15.3545 7.74014 15.0502L3.16348 10.7033C0.44844 8.12483 -0.55068 4.23123 1.36452 2.42969Z" stroke="white" stroke-width="1.5" stroke-linejoin="round"/>
<path d="M19.713 1.62891L15.5745 5.55913C15.2561 5.8615 15.0034 6.22048 14.8311 6.61558C14.6587 7.01067 14.57 7.43414 14.57 7.8618V8.61783C14.5701 8.7248 14.5479 8.83072 14.5048 8.92954C14.4617 9.02836 14.3985 9.11814 14.3188 9.19375L13.7129 9.76917" stroke="white" stroke-width="1.5" stroke-linecap="round" stroke-linejoin="round"/>
<path d="M15.4277 11.3974L16.0336 10.822C16.1133 10.7463 16.2078 10.6863 16.3118 10.6454C16.4159 10.6044 16.5274 10.5834 16.6401 10.5834H17.4362C17.8865 10.5834 18.3324 10.4992 18.7484 10.3355C19.1644 10.1718 19.5424 9.93189 19.8608 9.62945L23.9993 5.69922" stroke="white" stroke-width="1.5" stroke-linecap="round" stroke-linejoin="round"/>
<path d="M21.8561 3.66406L17.5703 7.73421" stroke="white" stroke-width="1.5" stroke-linecap="round" stroke-linejoin="round"/>
<path d="M8.99966 18.7235L3.65745 23.8255C3.2556 24.207 2.71064 24.4213 2.14243 24.4213C1.57421 24.4213 1.02926 24.207 0.627408 23.8255V23.8255C0.225679 23.4438 0 22.9263 0 22.3867C0 21.847 0.225679 21.3295 0.627408 20.9479L5.14247 16.6885" stroke="white" stroke-width="1.5" stroke-linecap="round" stroke-linejoin="round"/>
</svg>
