<svg width="304" height="304" viewBox="0 0 304 304" fill="none" xmlns="http://www.w3.org/2000/svg">
<path d="M302 152C302 234.843 234.843 302 152 302C69.1573 302 2 234.843 2 152C2 69.1573 69.1573 2 152 2C234.843 2 302 69.1573 302 152Z" fill="#1944C6"/>
<path d="M230.351 105.493L230.52 109.454L227.649 108.387L230.351 105.493Z" fill="black"/>
<path d="M229.714 107.204L230.349 112.119L226.021 110.509L229.714 107.204Z" fill="black"/>
<path d="M229.14 108.747L229.973 114.709L224.717 112.755L229.14 108.747Z" fill="black"/>
<rect x="227.087" y="113.636" width="0.439816" height="1.46157" transform="rotate(20.3991 227.087 113.636)" fill="black"/>
<path d="M233.576 112.026L233.801 114.036L232.085 113.388L233.576 112.026Z" fill="black"/>
<path d="M233.258 112.868L233.787 115.378L231.2 114.4L233.258 112.868Z" fill="black"/>
<path d="M232.971 113.626L233.649 116.674L230.508 115.486L232.971 113.626Z" fill="black"/>
<rect x="231.925" y="116.021" width="0.263414" height="0.720147" transform="rotate(20.7129 231.925 116.021)" fill="black"/>
<path d="M238.62 110.309L239.022 113.516L236.212 112.453L238.62 110.309Z" fill="black"/>
<path d="M238.115 111.646L239.02 115.653L234.784 114.051L238.115 111.646Z" fill="black"/>
<path d="M237.66 112.848L238.817 117.715L233.673 115.77L237.66 112.848Z" fill="black"/>
<rect x="235.993" y="116.647" width="0.431373" height="1.14286" transform="rotate(20.7129 235.993 116.647)" fill="black"/>
<path d="M245.489 110.09L245.627 114.055L242.779 112.979L245.489 110.09Z" fill="black"/>
<path d="M244.843 111.802L245.437 116.722L241.143 115.099L244.843 111.802Z" fill="black"/>
<path d="M244.26 113.343L245.042 119.311L239.828 117.341L244.26 113.343Z" fill="black"/>
<rect x="242.18" y="118.229" width="0.437141" height="1.46398" transform="rotate(20.7054 242.18 118.229)" fill="black"/>
<path d="M247.676 116.466L247.901 118.476L246.185 117.827L247.676 116.466Z" fill="black"/>
<path d="M247.358 117.308L247.887 119.818L245.3 118.839L247.358 117.308Z" fill="black"/>
<path d="M247.071 118.066L247.749 121.113L244.608 119.925L247.071 118.066Z" fill="black"/>
<rect x="246.025" y="120.461" width="0.263414" height="0.720147" transform="rotate(20.7129 246.025 120.461)" fill="black"/>
<path d="M225.515 105.591L225.916 108.797L223.106 107.735L225.515 105.591Z" fill="black"/>
<path d="M225.009 106.927L225.915 110.935L221.678 109.333L225.009 106.927Z" fill="black"/>
<path d="M224.555 108.13L225.712 112.997L220.567 111.051L224.555 108.13Z" fill="black"/>
<rect x="222.887" y="111.929" width="0.431373" height="1.14286" transform="rotate(20.7129 222.887 111.929)" fill="black"/>
<path d="M255.539 113.951L255.709 117.913L252.838 116.845L255.539 113.951Z" fill="black"/>
<path d="M254.902 115.663L255.538 120.577L251.21 118.968L254.902 115.663Z" fill="black"/>
<path d="M254.329 117.205L255.162 123.168L249.906 121.213L254.329 117.205Z" fill="black"/>
<rect x="252.276" y="122.095" width="0.439816" height="1.46157" transform="rotate(20.3991 252.276 122.095)" fill="black"/>
<path d="M258.764 120.485L258.99 122.495L257.274 121.846L258.764 120.485Z" fill="black"/>
<path d="M258.446 121.327L258.976 123.837L256.389 122.858L258.446 121.327Z" fill="black"/>
<path d="M258.16 122.085L258.838 125.132L255.697 123.944L258.16 122.085Z" fill="black"/>
<rect x="257.113" y="124.48" width="0.263414" height="0.720147" transform="rotate(20.7129 257.113 124.48)" fill="black"/>
<path d="M263.809 118.768L264.21 121.974L261.4 120.911L263.809 118.768Z" fill="black"/>
<path d="M263.304 120.104L264.209 124.112L259.973 122.51L263.304 120.104Z" fill="black"/>
<path d="M262.849 121.306L264.006 126.173L258.862 124.228L262.849 121.306Z" fill="black"/>
<rect x="261.182" y="125.105" width="0.431373" height="1.14286" transform="rotate(20.7129 261.182 125.105)" fill="black"/>
<path d="M270.678 118.549L270.815 122.513L267.968 121.437L270.678 118.549Z" fill="black"/>
<path d="M270.032 120.26L270.625 125.18L266.332 123.557L270.032 120.26Z" fill="black"/>
<path d="M269.449 121.801L270.231 127.77L265.017 125.799L269.449 121.801Z" fill="black"/>
<rect x="267.369" y="126.687" width="0.437141" height="1.46398" transform="rotate(20.7054 267.369 126.687)" fill="black"/>
<path d="M272.865 124.924L273.09 126.934L271.374 126.285L272.865 124.924Z" fill="black"/>
<path d="M272.546 125.766L273.076 128.276L270.489 127.298L272.546 125.766Z" fill="black"/>
<path d="M272.26 126.524L272.938 129.571L269.797 128.383L272.26 126.524Z" fill="black"/>
<rect x="271.214" y="128.919" width="0.263414" height="0.720147" transform="rotate(20.7129 271.214 128.919)" fill="black"/>
<path d="M250.703 114.049L251.105 117.256L248.295 116.193L250.703 114.049Z" fill="black"/>
<path d="M250.198 115.385L251.104 119.393L246.867 117.791L250.198 115.385Z" fill="black"/>
<path d="M249.743 116.588L250.901 121.455L245.756 119.51L249.743 116.588Z" fill="black"/>
<rect x="248.076" y="120.387" width="0.431373" height="1.14286" transform="rotate(20.7129 248.076 120.387)" fill="black"/>
<path d="M280.729 122.408L280.898 126.369L278.027 125.302L280.729 122.408Z" fill="black"/>
<path d="M280.091 124.119L280.727 129.034L276.399 127.424L280.091 124.119Z" fill="black"/>
<path d="M279.518 125.662L280.351 131.624L275.095 129.67L279.518 125.662Z" fill="black"/>
<rect x="277.465" y="130.551" width="0.439816" height="1.46157" transform="rotate(20.3991 277.465 130.551)" fill="black"/>
<path d="M283.954 128.941L284.179 130.951L282.463 130.303L283.954 128.941Z" fill="black"/>
<path d="M283.635 129.783L284.165 132.293L281.578 131.315L283.635 129.783Z" fill="black"/>
<path d="M283.349 130.541L284.027 133.589L280.886 132.401L283.349 130.541Z" fill="black"/>
<rect x="282.302" y="132.936" width="0.263414" height="0.720147" transform="rotate(20.7129 282.302 132.936)" fill="black"/>
<path d="M288.998 127.224L289.4 130.431L286.589 129.368L288.998 127.224Z" fill="black"/>
<path d="M288.493 128.56L289.398 132.568L285.162 130.966L288.493 128.56Z" fill="black"/>
<path d="M288.038 129.763L289.195 134.63L284.051 132.685L288.038 129.763Z" fill="black"/>
<rect x="286.371" y="133.562" width="0.431373" height="1.14286" transform="rotate(20.7129 286.371 133.562)" fill="black"/>
<path d="M295.867 127.005L296.004 130.97L293.157 129.893L295.867 127.005Z" fill="black"/>
<path d="M295.221 128.717L295.815 133.637L291.521 132.014L295.221 128.717Z" fill="black"/>
<path d="M294.638 130.257L295.42 136.226L290.206 134.256L294.638 130.257Z" fill="black"/>
<rect x="292.558" y="135.144" width="0.437141" height="1.46398" transform="rotate(20.7054 292.558 135.144)" fill="black"/>
<path d="M298.054 133.381L298.279 135.391L296.563 134.742L298.054 133.381Z" fill="black"/>
<path d="M297.736 134.223L298.265 136.733L295.678 135.754L297.736 134.223Z" fill="black"/>
<path d="M297.449 134.98L298.127 138.028L294.986 136.84L297.449 134.98Z" fill="black"/>
<rect x="296.403" y="137.376" width="0.263414" height="0.720147" transform="rotate(20.7129 296.403 137.376)" fill="black"/>
<path d="M275.893 122.506L276.294 125.712L273.484 124.65L275.893 122.506Z" fill="black"/>
<path d="M275.387 123.842L276.293 127.85L272.056 126.248L275.387 123.842Z" fill="black"/>
<path d="M274.932 125.045L276.09 129.911L270.945 127.966L274.932 125.045Z" fill="black"/>
<rect x="273.265" y="128.843" width="0.431373" height="1.14286" transform="rotate(20.7129 273.265 128.843)" fill="black"/>
<path d="M171.079 110.841L198.517 93.0061L218.605 110.841L302 139.652V158.5L299 178.982L291.12 210.537L271 243L257.5 259L240.5 273.5L214 288.5L179.408 300.171L153.93 302L128.5 300.171L104 294L64 275L29.5 239.5L11 204L4 178.982V162.061L58.8763 120.445L78.4749 139.652L140.211 77L171.079 110.841Z" fill="#061E3C"/>
<path d="M140 93.5L150 124L147 130L138.5 124L130.5 130L119.5 138L117.5 130L97.5 138L140 93.5Z" fill="#1C3A6C"/>
<path d="M197 106.5L211 118.5L203 138L194 135L182 140.5L180.5 135L167 142V136L147.5 140.5L197 106.5Z" fill="#1C3A6C"/>
<path d="M185 40.8379L185.396 42.4419L187 42.8379L185.396 43.2338L185 44.8379L184.604 43.2338L183 42.8379L184.604 42.4419L185 40.8379Z" fill="white"/>
<path d="M194.429 40L194.825 41.604L196.429 42L194.825 42.396L194.429 44L194.033 42.396L192.429 42L194.033 41.604L194.429 40Z" fill="white"/>
<path d="M206.215 43.3536L206.611 44.9576L208.215 45.3536L206.611 45.7496L206.215 47.3536L205.819 45.7496L204.215 45.3536L205.819 44.9576L206.215 43.3536Z" fill="white"/>
<path d="M214.071 51.7402L214.467 53.3443L216.071 53.7402L214.467 54.1362L214.071 55.7402L213.675 54.1362L212.071 53.7402L213.675 53.3443L214.071 51.7402Z" fill="white"/>
<path d="M216.429 60.9648L216.825 62.5689L218.429 62.9648L216.825 63.3608L216.429 64.9648L216.033 63.3608L214.429 62.9648L216.033 62.5689L216.429 60.9648Z" fill="white"/>
<path d="M232.929 63.4844L233.325 65.0884L234.929 65.4844L233.325 65.8804L232.929 67.4844L232.533 65.8804L230.929 65.4844L232.533 65.0884L232.929 63.4844Z" fill="white"/>
<path d="M237.643 54.2578L238.039 55.8618L239.643 56.2578L238.039 56.6538L237.643 58.2578L237.247 56.6538L235.643 56.2578L237.247 55.8618L237.643 54.2578Z" fill="white"/>
<rect x="49" y="190.506" width="45" height="14.4924" fill="white" stroke="black" stroke-width="0.5"/>
<path d="M94 190.507C94 188.837 86 185.53 86 185.53L80 182.489L76 180.553C76 180.553 74.4547 180 71.5 180C68.5453 180 67 180.553 67 180.553L63 182.489L56 185.53C56 185.53 49 188.837 49 190.507L71.5 190.507H94Z" fill="white" stroke="black" stroke-width="0.5"/>
<rect x="66.0994" y="193.045" width="11.25" height="11.9562" fill="black"/>
<line x1="49" y1="195.444" x2="66.1" y2="195.444" stroke="black"/>
<line x1="49" y1="197.983" x2="66.1" y2="197.983" stroke="black"/>
<line x1="49" y1="200.88" x2="66.1" y2="200.88" stroke="black"/>
<line x1="77.3493" y1="195.444" x2="93.9993" y2="195.444" stroke="black"/>
<line x1="77.3493" y1="197.983" x2="93.9993" y2="197.983" stroke="black"/>
<line x1="77.3493" y1="200.88" x2="93.9993" y2="200.88" stroke="black"/>
<path d="M67.4507 180.363L68.8682 181.179L70.0832 181.45H71.5007H72.9182L74.1332 181.179L75.5507 180.363" stroke="black" stroke-width="0.5"/>
<path d="M137.5 203.5C154.5 197.5 244.5 192.167 295 196.501L291.5 207C266.167 208 206.5 206.5 195 213C183.5 219.5 202.266 226.383 210.5 230.5C224.5 237.5 233 246 195 252.5C165.301 257.58 121.833 277.334 98.5 292.5L71 279C62.8333 272.167 44 257.4 40 251C51 238.5 121.5 239 137.5 237.5C150.3 236.3 169 232.5 157.5 228.5C153.276 227.03 156 228 146.5 225.501C134.645 222.384 118.423 210.232 137.5 203.5Z" fill="#0171BC" stroke="#0171BC"/>
<path d="M61 58L61.9899 62.0101L66 63L61.9899 63.9899L61 68L60.0101 63.9899L56 63L60.0101 62.0101L61 58Z" fill="white"/>
<path d="M65 71L65.594 73.406L68 74L65.594 74.594L65 77L64.406 74.594L62 74L64.406 73.406L65 71Z" fill="white"/>
<path d="M72 63L72.792 66.208L76 67L72.792 67.792L72 71L71.208 67.792L68 67L71.208 66.208L72 63Z" fill="white"/>
<mask id="path-98-outside-1_127_756" maskUnits="userSpaceOnUse" x="0" y="0" width="304" height="304" fill="black">
<rect fill="white" width="304" height="304"/>
<path d="M303 152C303 235.395 235.395 303 152 303C68.605 303 1 235.395 1 152C1 68.605 68.605 1 152 1C235.395 1 303 68.605 303 152ZM2.87579 152C2.87579 234.359 69.641 301.124 152 301.124C234.359 301.124 301.124 234.359 301.124 152C301.124 69.641 234.359 2.87579 152 2.87579C69.641 2.87579 2.87579 69.641 2.87579 152Z"/>
</mask>
<path d="M303 152C303 235.395 235.395 303 152 303C68.605 303 1 235.395 1 152C1 68.605 68.605 1 152 1C235.395 1 303 68.605 303 152ZM2.87579 152C2.87579 234.359 69.641 301.124 152 301.124C234.359 301.124 301.124 234.359 301.124 152C301.124 69.641 234.359 2.87579 152 2.87579C69.641 2.87579 2.87579 69.641 2.87579 152Z" fill="black"/>
<path d="M303 152C303 235.395 235.395 303 152 303C68.605 303 1 235.395 1 152C1 68.605 68.605 1 152 1C235.395 1 303 68.605 303 152ZM2.87579 152C2.87579 234.359 69.641 301.124 152 301.124C234.359 301.124 301.124 234.359 301.124 152C301.124 69.641 234.359 2.87579 152 2.87579C69.641 2.87579 2.87579 69.641 2.87579 152Z" stroke="black" stroke-width="2" mask="url(#path-98-outside-1_127_756)"/>
<circle cx="105" cy="34" r="11" fill="white"/>
</svg>
