<svg width="16" height="20" viewBox="0 0 16 20" fill="none" xmlns="http://www.w3.org/2000/svg">
<path d="M2.33918 5.5584C2.06462 3.75002 3.33968 2.12565 5.2875 1.53052C5.63315 1.42484 6.0061 1.45492 6.33034 1.61464C6.65459 1.77436 6.90574 2.0517 7.03262 2.39015L7.65793 4.05765C7.7586 4.3259 7.7768 4.61812 7.7102 4.8968C7.64361 5.17547 7.49525 5.42789 7.28418 5.62165L5.42406 7.32509C5.33237 7.40923 5.26405 7.51569 5.22575 7.6341C5.18746 7.7525 5.1805 7.87881 5.20556 8.00071L5.22281 8.07546L5.26737 8.26233C5.4987 9.17033 5.85118 10.0431 6.31531 10.857C6.82089 11.722 7.44832 12.5096 8.17831 13.1958L8.23581 13.2476C8.32867 13.33 8.44131 13.387 8.56273 13.4129C8.68416 13.4389 8.81024 13.4329 8.92868 13.3956L11.3336 12.6381C11.6069 12.5523 11.8997 12.5501 12.1742 12.6318C12.4488 12.7135 12.6927 12.8754 12.8746 13.0966L14.0131 14.4781C14.4875 15.0531 14.43 15.8983 13.8852 16.4058C12.3945 17.7958 10.3446 18.0805 8.91862 16.9348C7.17066 15.5248 5.69712 13.8052 4.57162 11.8618C3.43699 9.91997 2.6791 7.78139 2.33775 5.5584H2.33918ZM6.7135 8.09558L8.2545 6.68109C8.67689 6.29373 8.97387 5.78898 9.10732 5.23162C9.24076 4.67426 9.20459 4.08974 9.00343 3.55308L8.37956 1.88559C8.12418 1.20457 7.61874 0.646547 6.96623 0.325235C6.31372 0.00392269 5.56326 -0.0565023 4.86775 0.156273C2.44843 0.896585 0.506371 3.06577 0.917496 5.77546C1.205 7.66721 1.86768 10.0736 3.32962 12.5863C4.54389 14.6818 6.1334 16.5359 8.01875 18.056C10.1577 19.7738 13.0126 19.1873 14.867 17.4595C15.9681 16.4331 16.0802 14.7282 15.1243 13.5667L13.9858 12.1838C13.6216 11.7418 13.1337 11.4186 12.5845 11.2557C12.0354 11.0928 11.4502 11.0976 10.9038 11.2696L8.90712 11.8978C8.39159 11.3662 7.94002 10.7762 7.56162 10.1397C7.1961 9.49623 6.91124 8.81017 6.7135 8.09702V8.09558Z" fill="#484848"/>
</svg>
