<svg width="18" height="18" viewBox="0 0 18 18" fill="none" xmlns="http://www.w3.org/2000/svg">
<path d="M7.16667 17.25H10.8333M15.4167 17.25V2.58333C15.4167 2.0971 15.2235 1.63079 14.8797 1.28697C14.5359 0.943154 14.0696 0.75 13.5833 0.75H4.41667C3.93044 0.75 3.46412 0.943154 3.1203 1.28697C2.77649 1.63079 2.58333 2.0971 2.58333 2.58333V17.25H15.4167ZM15.4167 17.25H17.25H15.4167ZM15.4167 17.25H10.8333H15.4167ZM2.58333 17.25H0.75H2.58333ZM2.58333 17.25H7.16667H2.58333ZM6.25 4.41667H7.16667H6.25ZM6.25 8.08333H7.16667H6.25ZM10.8333 4.41667H11.75H10.8333ZM10.8333 8.08333H11.75H10.8333ZM7.16667 17.25V12.6667C7.16667 12.4236 7.26324 12.1904 7.43515 12.0185C7.60706 11.8466 7.84022 11.75 8.08333 11.75H9.91667C10.1598 11.75 10.3929 11.8466 10.5648 12.0185C10.7368 12.1904 10.8333 12.4236 10.8333 12.6667V17.25H7.16667Z" stroke="white" stroke-width="1.5" stroke-linecap="round" stroke-linejoin="round"/>
</svg>
