<svg width="44" height="44" viewBox="0 0 44 44" fill="none" xmlns="http://www.w3.org/2000/svg">
<path d="M21.9998 3.6665C12.0613 3.6665 3.6665 12.0613 3.6665 21.9998C3.6665 31.9383 12.0613 40.3332 21.9998 40.3332C31.9383 40.3332 40.3332 31.9383 40.3332 21.9998C40.3332 12.0613 31.9383 3.6665 21.9998 3.6665ZM21.9998 12.8332C25.166 12.8332 27.4998 15.1652 27.4998 18.3332C27.4998 21.5012 25.166 23.8332 21.9998 23.8332C18.8355 23.8332 16.4998 21.5012 16.4998 18.3332C16.4998 15.1652 18.8355 12.8332 21.9998 12.8332ZM12.6388 30.7485C14.2833 28.3285 17.026 26.7152 20.1665 26.7152H23.8332C26.9755 26.7152 29.7163 28.3285 31.3608 30.7485C29.0178 33.2565 25.694 34.8332 21.9998 34.8332C18.3057 34.8332 14.9818 33.2565 12.6388 30.7485Z" fill="white"/>
</svg>
