<svg width="30" height="27" viewBox="0 0 30 27" fill="none" xmlns="http://www.w3.org/2000/svg">
<path d="M25.776 4.01478C25.136 3.37604 24.3762 2.86934 23.5398 2.52364C22.7035 2.17793 21.807 2 20.9017 2C19.9964 2 19.1 2.17793 18.2637 2.52364C17.4273 2.86934 16.6675 3.37604 16.0275 4.01478L14.6993 5.33978L13.3711 4.01478C12.0783 2.72517 10.325 2.00067 8.49678 2.00067C6.66857 2.00067 4.91524 2.72517 3.62251 4.01478C2.32977 5.3044 1.60352 7.05349 1.60352 8.87728C1.60352 10.7011 2.32977 12.4502 3.62251 13.7398L4.95071 15.0648L14.6993 24.7898L24.4478 15.0648L25.776 13.7398C26.4163 13.1013 26.9242 12.3433 27.2708 11.509C27.6173 10.6747 27.7957 9.78039 27.7957 8.87728C27.7957 7.97417 27.6173 7.07991 27.2708 6.24559C26.9242 5.41126 26.4163 4.65323 25.776 4.01478V4.01478Z" stroke="#9A9A9A" stroke-width="2.5" stroke-linecap="round" stroke-linejoin="round"/>
</svg>
