<svg width="29" height="19" viewBox="0 0 29 19" fill="none" xmlns="http://www.w3.org/2000/svg">
<path d="M27.9669 5.60977C28.0612 5.52281 28.1345 5.41748 28.1818 5.30102C28.2291 5.18457 28.2492 5.05976 28.2409 4.9352C28.2325 4.81064 28.1958 4.68928 28.1333 4.57949C28.0708 4.46969 27.9839 4.37407 27.8788 4.29921C23.8813 1.53909 19.0642 0.0557476 14.1219 0.0630149C8.98251 0.0630149 4.2275 1.63356 0.365002 4.29921C0.259711 4.37393 0.172729 4.46945 0.11005 4.57917C0.0473699 4.6889 0.0104822 4.81022 0.00192787 4.93479C-0.00662644 5.05936 0.013356 5.1842 0.0604985 5.30073C0.107641 5.41725 0.180823 5.52269 0.275002 5.60977C0.438868 5.76305 0.654696 5.85613 0.884059 5.87243C1.11342 5.88874 1.34144 5.82721 1.5275 5.69881C5.19339 3.18627 9.60102 1.8371 14.1219 1.84368C18.8225 1.84368 23.1725 3.27177 26.7144 5.69702C27.0988 5.96056 27.6331 5.92851 27.9669 5.60977Z" fill="white"/>
<path d="M23.9262 9.44869C24.0228 9.36016 24.0975 9.25231 24.1447 9.13296C24.1919 9.01361 24.2106 8.88577 24.1992 8.75873C24.1879 8.63168 24.147 8.50863 24.0793 8.39851C24.0116 8.28838 23.919 8.19396 23.8081 8.1221C20.9251 6.34356 17.5597 5.39947 14.1219 5.40481C10.55 5.40481 7.22185 6.40198 4.4356 8.1221C4.32414 8.19354 4.23094 8.28779 4.16288 8.39793C4.09481 8.50807 4.05359 8.63129 4.04226 8.75855C4.03093 8.8858 4.04977 9.01385 4.0974 9.13328C4.14502 9.25271 4.22023 9.36049 4.31748 9.44869C4.47723 9.59677 4.68524 9.68888 4.90738 9.70991C5.12951 9.73094 5.35258 9.67964 5.53998 9.56443C8.10127 8.00646 11.0802 7.18067 14.1219 7.18547C17.1628 7.18101 20.1411 8.00678 22.7019 9.56443C23.0881 9.79948 23.6019 9.75674 23.9262 9.44869ZM19.8331 13.3359C20.2569 12.9334 20.18 12.2586 19.6456 12.0004C17.9347 11.1735 16.0416 10.7439 14.1219 10.7468C12.1344 10.7468 10.2556 11.1991 8.5981 12.0004C8.06373 12.2586 7.98685 12.9334 8.4106 13.3359L8.43873 13.3626C8.73873 13.6475 9.20185 13.7009 9.58435 13.5228C10.9967 12.8655 12.5491 12.5249 14.1219 12.5275C15.7494 12.5275 17.2906 12.8854 18.6594 13.5246C19.04 13.7027 19.5031 13.6493 19.8031 13.3626L19.8331 13.3359ZM16.1094 16.8723C16.4769 16.5233 16.4806 15.9463 16.0344 15.697C15.4559 15.37 14.795 15.1978 14.1219 15.1984C13.4487 15.1978 12.7878 15.37 12.2094 15.697C11.7631 15.9463 11.7669 16.5233 12.1344 16.8723L13.4581 18.1294C13.6339 18.2963 13.8723 18.3901 14.1209 18.3901C14.3695 18.3901 14.6079 18.2963 14.7837 18.1294L16.1094 16.8705V16.8723Z" fill="white"/>
</svg>
