<svg width="25" height="20" viewBox="0 0 25 20" fill="none" xmlns="http://www.w3.org/2000/svg">
<path d="M3.30078 2.725C3.30078 2.2675 3.48252 1.82874 3.80602 1.50524C4.12952 1.18174 4.56828 1 5.02578 1H19.9758C20.4333 1 20.872 1.18174 21.1955 1.50524C21.519 1.82874 21.7008 2.2675 21.7008 2.725V9.05H3.30078V2.725Z" stroke="#FFFFFF" stroke-width="2" stroke-linecap="round" stroke-linejoin="round"/>
<path d="M2.15039 15.95V18.25" stroke="#FFFFFF" stroke-width="2" stroke-linecap="round" stroke-linejoin="round"/>
<path d="M22.8496 15.95V18.25" stroke="#FFFFFF" stroke-width="2" stroke-linecap="round" stroke-linejoin="round"/>
<path d="M15.3754 6.17505H9.62539C9.16789 6.17505 8.72913 6.35679 8.40563 6.68029C8.08213 7.00379 7.90039 7.44255 7.90039 7.90005V9.05005H17.1004V7.90005C17.1004 7.44255 16.9187 7.00379 16.5952 6.68029C16.2717 6.35679 15.8329 6.17505 15.3754 6.17505Z" stroke="#FFFFFF" stroke-width="2" stroke-linecap="round" stroke-linejoin="round"/>
<path d="M1 10.775C1 10.3176 1.18174 9.87879 1.50524 9.55529C1.82874 9.23179 2.2675 9.05005 2.725 9.05005H22.275C22.7325 9.05005 23.1713 9.23179 23.4948 9.55529C23.8183 9.87879 24 10.3176 24 10.775V15.95H1V10.775Z" stroke="#FFFFFF" stroke-width="2" stroke-linecap="round" stroke-linejoin="round"/>
</svg>
